<?xml version="1.0" encoding="UTF-8"?>
<svg id="Livello_1" xmlns="http://www.w3.org/2000/svg" version="1.1" viewBox="0 0 433.75 111.39">
  <!-- Generator: Adobe Illustrator 30.2.0, SVG Export Plug-In . SVG Version: 2.1.1 Build 105)  -->
  <defs>
    <style>
      .st0 {
        fill: #1f2a50;
      }

      .st1 {
        font-family: Montserrat-Bold, Montserrat;
        font-size: 54px;
        font-weight: 700;
      }

      .st1, .st2, .st3, .st4, .st5 {
        isolation: isolate;
      }

      .st1, .st6 {
        fill: #fff;
      }

      .st7 {
        stroke: #8c94a9;
      }

      .st7, .st8, .st9 {
        fill: none;
        stroke-width: 1.2px;
      }

      .st2, .st3, .st4 {
        font-family: Montserrat-Regular, Montserrat;
        font-size: 23.5px;
      }

      .st2, .st3, .st4, .st10 {
        fill: #80acb1;
      }

      .st3 {
        letter-spacing: -.02em;
      }

      .st4 {
        letter-spacing: 0em;
      }

      .st8 {
        stroke: #4e6b83;
      }

      .st9 {
        stroke: #bfd6d8;
      }
    </style>
  </defs>
  <path class="st9" d="M53.92,105.23c1.39.53,2.78.86,4.16.99,9.8.9,19.41-2.46,26.06-9.73,3.6-3.94,5.9-8.48,6.9-13.6.96-4.92.52-8.97-.9-13.87-.49-1.68-1.75-4.32-3.78-7.94-7.75-13.75-13.98-24.74-18.7-32.96-1.01-1.75-2-3.59-2.99-5.53-.96-1.89-2.03-3.7-3.2-5.43-.05-.08-.14-.12-.23-.12s-.17.05-.22.13l-6.86,11.7"/>
  <path class="st7" d="M54.13,28.9L37.92.69c-.03-.05-.09-.09-.15-.09s-.12.03-.15.08c-1.56,2.61-2.83,4.81-3.82,6.62-2.45,4.5-4.93,8.41-7.18,12.59-1.04,1.93-1.97,3.59-2.8,4.98-2.49,4.16-5.14,9.08-7.09,12.44-3.15,5.4-6.95,12.02-11.4,19.85-1.26,2.21-2.19,4.17-2.8,5.89-2.47,6.97-2.57,13.96-.29,20.97,1.04,3.2,2.42,6.06,4.13,8.59,9.46,13.97,26.67,19.18,42.67,14.49.71-.21,1.53-.5,2.46-.88.82-.33,1.63-.66,2.42-.99"/>
  <path class="st8" d="M54.13,28.9c.81,1.44,1.63,2.91,2.47,4.41,1.85,3.32,4.11,6.78,5.62,9.56,2.64,4.86,4.82,8.75,6.53,11.68,1.89,3.23,3.02,5.33,3.39,6.28.88,2.29,1.58,4.55,2.08,6.8.84,3.75.91,7.65.22,11.69-.23,1.35-.69,2.96-1.38,4.86-.95,2.58-1.56,4.15-1.85,4.7-1.03,1.99-2.24,3.88-3.65,5.66-1.07,1.36-2.22,2.4-3.36,3.56-2.94,2.99-6.47,5.35-10.29,7.12"/>
  <path class="st7" d="M39.54,38.03s-.05,0-.07.02c-.02,0-.04.03-.05.06l-20.27,44.21s-.01.09,0,.12c.02.04.07.06.11.06h10.19s.05,0,.07-.02c.02-.01.04-.03.05-.06l14.77-34.59s.04-.06.07-.07.07,0,.1,0,.06.04.07.07l7.5,17.27s0,.09,0,.12c-.02.04-.06.06-.11.06h-9.46s-.05,0-.07.02-.04.04-.05.06l-2.89,7.79s0,.08,0,.12c.02.04.06.06.11.06h15.81s.05,0,.07.02c.02.01.04.03.05.06l3.92,9s.03.04.05.06c.02.01.05.02.07.02h10.32s.09-.02.11-.06c.02-.04.03-.08,0-.12l-20.13-44.2s-.03-.04-.05-.06c-.02,0-.05-.02-.07-.02h-10.22"/>
  <path class="st0" d="M39.54,38.03s-.05,0-.07.02c-.02,0-.04.03-.05.06l-20.27,44.21s-.01.09,0,.12c.02.04.07.06.11.06h10.19s.05,0,.07-.02c.02-.01.04-.03.05-.06l14.77-34.59s.04-.06.07-.07.07,0,.1,0,.06.04.07.07l7.5,17.27s0,.09,0,.12c-.02.04-.06.06-.11.06h-9.46s-.05,0-.07.02-.04.04-.05.06l-2.89,7.79s0,.08,0,.12c.02.04.06.06.11.06h15.81s.05,0,.07.02c.02.01.04.03.05.06l3.92,9s.03.04.05.06c.02.01.05.02.07.02h10.32s.09-.02.11-.06c.02-.04.03-.08,0-.12l-20.13-44.2s-.03-.04-.05-.06c-.02,0-.05-.02-.07-.02h-10.22,0ZM54.13,28.9c.81,1.44,1.63,2.91,2.47,4.41,1.85,3.32,4.11,6.78,5.62,9.56,2.64,4.86,4.82,8.75,6.53,11.68,1.89,3.23,3.02,5.33,3.39,6.28.88,2.29,1.58,4.55,2.08,6.8.84,3.75.91,7.65.22,11.69-.23,1.35-.69,2.96-1.38,4.86-.95,2.58-1.56,4.15-1.85,4.7-1.03,1.99-2.24,3.88-3.65,5.66-1.07,1.36-2.22,2.4-3.36,3.56-2.94,2.99-6.47,5.35-10.29,7.12-.79.33-1.6.66-2.42.99-.93.38-1.75.67-2.46.88-16,4.69-33.21-.52-42.67-14.49-1.71-2.52-3.09-5.39-4.13-8.59C-.04,77.01.05,70.02,2.53,63.05c.61-1.72,1.54-3.69,2.8-5.89,4.45-7.83,8.25-14.45,11.4-19.85,1.95-3.35,4.6-8.28,7.09-12.44.83-1.39,1.77-3.05,2.8-4.98,2.25-4.18,4.73-8.08,7.18-12.59.98-1.81,2.26-4.02,3.82-6.62.03-.05.09-.08.15-.08s.12.03.15.09c0,0,16.21,28.21,16.21,28.21Z"/>
  <path class="st10" d="M53.92,105.23c3.82-1.78,7.34-4.13,10.29-7.12,1.15-1.17,2.29-2.2,3.36-3.56,1.4-1.78,2.62-3.66,3.65-5.66.29-.56.9-2.13,1.85-4.7.69-1.89,1.15-3.51,1.38-4.86.69-4.04.62-7.94-.22-11.69-.5-2.25-1.2-4.52-2.08-6.8-.37-.95-1.5-3.05-3.39-6.28-1.71-2.93-3.88-6.82-6.53-11.68-1.51-2.78-3.77-6.25-5.62-9.56-.84-1.5-1.66-2.98-2.47-4.41l6.86-11.7c.05-.08.13-.13.22-.13s.18.04.23.12c1.17,1.73,2.24,3.53,3.2,5.43.99,1.94,1.99,3.78,2.99,5.53,4.72,8.22,10.96,19.21,18.7,32.96,2.03,3.61,3.3,6.26,3.78,7.94,1.43,4.91,1.86,8.95.9,13.87-1,5.12-3.3,9.65-6.9,13.6-6.64,7.27-16.26,10.63-26.06,9.73-1.38-.13-2.76-.46-4.16-.99l.02-.04Z"/>
  <path class="st6" d="M39.54,38.03h10.22s.05,0,.07.02c.02,0,.04.03.05.06l20.13,44.2s.01.09,0,.12c-.02.04-.07.06-.11.06h-10.32s-.05,0-.07-.02c-.02-.01-.04-.03-.05-.06l-3.92-9s-.03-.04-.05-.06c-.02-.01-.05-.02-.07-.02h-15.81s-.08-.02-.11-.06c-.02-.04-.03-.08,0-.12l2.89-7.79s.03-.05.05-.06.05-.02.07-.02h9.46s.08-.02.11-.06c.02-.04.03-.08,0-.12l-7.5-17.27s-.04-.06-.07-.07-.07,0-.1,0-.06.04-.07.07l-14.77,34.59s-.03.04-.05.06c-.02.01-.05.02-.07.02h-10.19s-.09-.02-.11-.06-.03-.08,0-.12l20.27-44.21s.03-.04.05-.06c.02,0,.05-.02.07-.02Z"/>
  <g class="st5">
    <text class="st1" transform="translate(103.65 75.62)"><tspan x="0" y="0">A</tspan></text>
    <text class="st1" transform="translate(144.47 75.62)"><tspan x="0" y="0">GESIGNAL</tspan></text>
  </g>
  <g class="st5">
    <text class="st4" transform="translate(100.25 105.23)"><tspan x="0" y="0">P</tspan></text>
    <text class="st2" transform="translate(116.82 105.23)"><tspan x="0" y="0">e</tspan></text>
    <text class="st2" transform="translate(131.01 105.23)"><tspan x="0" y="0">r</tspan></text>
    <text class="st2" transform="translate(140.34 105.23)"><tspan x="0" y="0">sonal H</tspan></text>
    <text class="st3" transform="translate(227.92 105.23)"><tspan x="0" y="0">e</tspan></text>
    <text class="st2" transform="translate(241.77 105.23)"><tspan x="0" y="0">a</tspan></text>
    <text class="st2" transform="translate(255.63 105.23)"><tspan x="0" y="0">l</tspan></text>
    <text class="st2" transform="translate(262 105.23)"><tspan x="0" y="0">th In</tspan></text>
    <text class="st3" transform="translate(316.61 105.23)"><tspan x="0" y="0">t</tspan></text>
    <text class="st2" transform="translate(325.71 105.23)"><tspan x="0" y="0">ellige</tspan></text>
    <text class="st2" transform="translate(389.18 105.23)"><tspan x="0" y="0">n</tspan></text>
    <text class="st2" transform="translate(405.13 105.23)"><tspan x="0" y="0">c</tspan></text>
    <text class="st2" transform="translate(418.15 105.23)"><tspan x="0" y="0">e</tspan></text>
  </g>
</svg>